<?xml version="1.0" encoding="UTF-8" standalone="no"?>
<svg
   width="542.901"
   height="653.28912"
   version="1.1"
   id="svg116"
   sodipodi:docname="AnyConv.com__Microsoft.VisualStudio.Services.Icons.svg"
   inkscape:version="1.2 (dc2aedaf03, 2022-05-15)"
   xmlns:inkscape="http://www.inkscape.org/namespaces/inkscape"
   xmlns:sodipodi="http://sodipodi.sourceforge.net/DTD/sodipodi-0.dtd"
   xmlns="http://www.w3.org/2000/svg"
   xmlns:svg="http://www.w3.org/2000/svg">
  <defs
     id="defs120" />
  <sodipodi:namedview
     id="namedview118"
     pagecolor="#ffffff"
     bordercolor="#666666"
     borderopacity="1.0"
     inkscape:showpageshadow="2"
     inkscape:pageopacity="0.0"
     inkscape:pagecheckerboard="true"
     inkscape:deskcolor="#d1d1d1"
     showgrid="false"
     inkscape:zoom="0.37123106"
     inkscape:cx="-323.24881"
     inkscape:cy="501.03566"
     inkscape:window-width="1366"
     inkscape:window-height="705"
     inkscape:window-x="-8"
     inkscape:window-y="-8"
     inkscape:window-maximized="1"
     inkscape:current-layer="svg116" />
  <path
     style="fill:#9988d3;stroke:none"
     d="m 452.8949,-0.60574655 v 1 h 8 z"
     id="path4" />
  <path
     style="fill:#7159c1;stroke:none"
     d="m 406.8949,86.394253 c -19.134,3.734 -43.353,-12.13 -61.999,-3.583 -14.62,6.703 -25.958,30.970997 -35.375,43.582997 -20.037,26.834 -39.738,53.944 -59.475,81 -9.129,12.514 -17.626,27.935 -28.616,38.836 -6.539,6.487 -26.096,-10.351 -32.535,-14.235 -24.084,-14.528 -47.916,-29.473 -72,-44 -8.164,-4.924 -19.409997,-13.903 -28.956997,-6.948 -14.813,10.791 0.63,21.253 5.774,30.531 2.37,4.276 0.37,19.5 -2.135,23.649 -3.68,6.097 -17.377,-5.364 -21.682,-7.459 -16.17,-7.866 -38.934,1.967 -41.787,20.626 -3.506,22.931 18.532,31.852 34.787,41.811 36.383,22.29 75.387997,58.267 120.999997,48.175 17.919,-3.965 30.699,-20.853 48,-23.653 12.841,-2.079 21.769,11.837 35,7.867 11.388,-3.417 23.622,-19.218 36,-17.589 6.944,0.914 13.168,6.09 19,9.589 12.031,7.219 23.97,14.581 36,21.8 5.329,3.198 14.273,11.187 20.91,9.664 5.103,-1.172 8.57,-8.788 11.464,-12.664 9.165,-12.273 18.087,-24.727 27.252,-37 30.665,-41.067 61.242,-82.332 91.084,-124 9.493,-13.255 30.575,-32.254 32.185,-49 1.739,-18.088 -23.509,-16.303 -35.895,-18 -4.309,-0.59 -13.356,-0.322 -14.408,-6.018997 -0.882,-4.777 7.368,-12.412 10.034,-15.981 10.909,-14.609 21.564,-29.411 32.501,-44 4.745,-6.33 15.071,-16.992 6.725,-24.606 -5.342,-4.8729995 -15.062,-4.8339995 -21.852,-5.6789995 -15.35,-1.91 -30.797,-4.492 -46,-7.179 -7.229,-1.27700005 -17.04,-3.576 -23.999,-0.079 -10.176,5.113 -17.455,20.6279995 -24.128,29.5429995 -11.669,15.591 -34.602,36.299 -16.873,55 z"
     id="path6" />
  <path
     style="fill:#d4ccec;stroke:none"
     d="m 489.8949,4.3942535 v 1 h 4 z"
     id="path8" />
  <path
     style="fill:#cac1e8;stroke:none"
     d="m 495.8949,5.3942535 v 1 h 4 z"
     id="path10" />
  <path
     style="fill:#d6cfed;stroke:none"
     d="m 502.8949,6.3942535 v 1 h 4 z"
     id="path12" />
  <path
     style="fill:#ccc3e9;stroke:none"
     d="m 508.8949,7.3942535 v 1 h 4 z"
     id="path14" />
  <path
     style="fill:#ad9fdb;stroke:none"
     d="m 515.8949,8.3942535 v 1 h 3 z"
     id="path16" />
  <path
     style="fill:#afa1dc;stroke:none"
     d="m 528.8949,10.394253 v 1 h 3 z"
     id="path18" />
  <path
     style="fill:#9e8ed5;stroke:none"
     d="m 542.8949,19.394253 v 5 h 1 z"
     id="path20" />
  <path
     style="fill:#a899d9;stroke:none"
     d="m 398.8949,67.394253 v 6 h 1 z"
     id="path22" />
  <path
     style="fill:#a697d8;stroke:none"
     d="m 349.8949,80.394253 v 1 h 9 z"
     id="path24" />
  <path
     style="fill:#b8ace0;stroke:none"
     d="m 361.8949,81.394253 v 1 h 5 z"
     id="path26" />
  <path
     style="fill:#aea1dc;stroke:none"
     d="m 379.8949,83.394253 v 1 h 5 l -5,-1 m 9,1 v 1 h 3 z"
     id="path28" />
  <path
     style="fill:#d3ccec;stroke:none"
     d="m 394.8949,85.394253 v 1 h 4 z"
     id="path30" />
  <path
     style="fill:#cbc2e8;stroke:none"
     d="m 400.8949,86.394253 v 1 h 4 z"
     id="path32" />
  <path
     style="fill:#c3b9e5;stroke:none"
     d="m 492.8949,103.39425 v 1 h 4 z"
     id="path34" />
  <path
     style="fill:#ad9fdb;stroke:none"
     d="m 500.8949,104.39425 v 1 h 3 z"
     id="path36" />
  <path
     style="fill:#d0c8ea;stroke:none"
     d="m 507.8949,105.39425 v 1 h 4 z"
     id="path38" />
  <path
     style="fill:#cbc2e8;stroke:none"
     d="m 514.8949,106.39425 v 1 h 4 z"
     id="path40" />
  <path
     style="fill:#c8bfe7;stroke:none"
     d="m 521.8949,107.39425 v 1 h 4 z"
     id="path42" />
  <path
     style="fill:#b8ace0;stroke:none"
     d="m 540.8949,118.39425 v 5 h 1 z"
     id="path44" />
  <path
     style="fill:#c0b5e4;stroke:none"
     d="m 99.561903,178.72725 0.665997,0.334 z"
     id="path46" />
  <path
     style="fill:#b8ace0;stroke:none"
     d="m 82.227903,196.06125 0.334,0.666 z"
     id="path48" />
  <path
     style="fill:#c1b7e4;stroke:none"
     d="m 93.894903,215.39425 v 3 h 1 z"
     id="path50" />
  <path
     style="fill:#9482d0;stroke:none"
     d="m 50.894903,224.39425 v 1 h 11 z"
     id="path52" />
  <path
     style="fill:#a899d9;stroke:none"
     d="m 91.894903,229.39425 v 5 h 1 z"
     id="path54" />
  <path
     style="fill:#c4bae5;stroke:none"
     d="m 26.894903,250.39425 v 7 h 1 z"
     id="path56" />
  <path
     style="fill:#c0b5e3;stroke:none"
     d="m 28.227903,260.06125 0.334,0.666 z"
     id="path58" />
  <path
     style="fill:#b7aadf;stroke:none"
     d="m 298.8949,304.39425 v 1 h 5 z"
     id="path60" />
  <path
     style="fill:#c8bfe7;stroke:none"
     d="m 229.8949,314.39425 v 1 h 9 z"
     id="path62" />
  <path
     style="fill:#7159c1;stroke:none"
     d="m 81.894903,323.39425 c -0.017,6.121 -2.293,13.158 0.075,19 5.093,12.566 19.576997,24.399 21.440997,38 1.739,12.693 -7.519997,32.512 -10.642997,45 -1.249,4.998 -4.192,11.821 -2.13,16.911 4.441,10.963 24.619997,19.295 34.256997,25.089 6.667,4.008 17.705,12.408 26,10.671 5.551,-1.163 9.988,-6.891 14,-10.502 10.055,-9.05 20.372,-21.244 32,-28.16 11.34,-6.744 31.451,1.079 44,0.908 4.316,-0.058 14.013,-3.303 15.248,-8.112 1.102,-4.286 -5.453,-7.1 -8.248,-8.855 -9.956,-6.251 -19.935,-12.477 -30,-18.551 -31.793,-19.188 -63.335,-38.81 -95,-58.21 -11.716,-7.178 -27.278997,-21.393 -40.999997,-23.189 z"
     id="path64" />
  <path
     style="fill:#dbd5ef;stroke:none"
     d="m 80.894903,324.39425 v 8 h 1 z"
     id="path66" />
  <path
     style="fill:#b0a3dc;stroke:none"
     d="m 145.5619,337.72725 0.666,0.334 z"
     id="path68" />
  <path
     style="fill:#b4a7de;stroke:none"
     d="m 149.5619,338.72725 0.666,0.334 z"
     id="path70" />
  <path
     style="fill:#bbafe1;stroke:none"
     d="m 180.8949,338.39425 v 1 h 3 z"
     id="path72" />
  <path
     style="fill:#9b8ad3;stroke:none"
     d="m 153.8949,339.39425 v 1 h 5 z"
     id="path74" />
  <path
     style="fill:#c6bce6;stroke:none"
     d="m 175.8949,339.39425 v 1 h 3 z"
     id="path76" />
  <path
     style="fill:#dfdaf1;stroke:none"
     d="m 161.8949,340.39425 v 1 h 8 z"
     id="path78" />
  <path
     style="fill:#cac1e8;stroke:none"
     d="m 102.8949,378.39425 v 6 h 1 z"
     id="path80" />
  <path
     style="fill:#ccc4e9;stroke:none"
     d="m 205.8949,437.39425 v 1 h 7 z"
     id="path82" />
  <path
     style="fill:#bcb1e2;stroke:none"
     d="m 88.894903,438.39425 v 3 h 1 z"
     id="path84" />
  <path
     style="fill:#ccc4e9;stroke:none"
     d="m 217.8949,438.39425 v 1 h 7 z"
     id="path86" />
  <path
     style="fill:#ccc3e9;stroke:none"
     d="m 229.8949,439.39425 v 1 h 7 z"
     id="path88" />
  <path
     style="fill:#7159c1;stroke:none"
     d="m 76.894903,457.00425 c -14.065,3.597 -26.631,15.467 -32.677,28.39 -5.482,11.718 -7.359,25.589 -10.882,38 -7.36,25.932 -14.67,51.929 -21.557,78 -3.5280003,13.358 -7.3820003,26.631 -10.86900027,40 -1.253,4.804 -2.36000003,12.671 4.98999997,11.833 11.5970003,-1.323 25.5410003,-21.091 33.9950003,-28.547 21.405,-18.88 41.598,-39.124 62.999997,-58 14.043,-12.387 31.636,-25.379 36.842,-44.286 3.048,-11.071 4.208,-24.716 -4.185,-33.867 -6.982,-7.613 -20.905,-12.621 -29.657,-18.466 -8.592997,-5.739 -17.690997,-15.95 -28.999997,-13.057 z"
     id="path90" />
  <path
     style="fill:#9a89d3;stroke:none"
     d="m 147.8949,478.39425 v 1 h 4 z"
     id="path92" />
  <path
     style="fill:#afa1dc;stroke:none"
     d="m 141.8949,498.39425 v 14 h 1 z"
     id="path94" />
  <path
     style="fill:#afa2dc;stroke:none"
     d="m 39.227903,501.06125 0.334,0.666 z"
     id="path96" />
  <path
     style="fill:#aea1dc;stroke:none"
     d="m 36.227903,512.06125 0.334,0.666 z"
     id="path98" />
  <path
     style="fill:#aea0dc;stroke:none"
     d="m 140.8949,514.39425 v 3 h 1 l -1,-3 m -107.666997,8.667 0.334,0.666 z"
     id="path100" />
  <path
     style="fill:#ac9edb;stroke:none"
     d="m 30.227903,534.06125 0.334,0.666 z"
     id="path102" />
  <path
     style="fill:#ab9ddb;stroke:none"
     d="m 27.227903,545.06125 0.334,0.666 z"
     id="path104" />
  <path
     style="fill:#aa9cda;stroke:none"
     d="m 24.227903,556.06125 0.334,0.666 z"
     id="path106" />
  <path
     style="fill:#a99bda;stroke:none"
     d="m 21.227903,567.06125 0.334,0.666 z"
     id="path108" />
  <path
     style="fill:#a99ad9;stroke:none"
     d="m 18.227903,578.06125 0.334,0.666 z"
     id="path110" />
  <path
     style="fill:#9d8cd4;stroke:none"
     d="m -1.1050973,647.39425 v 4 h 1.00000003 z"
     id="path112" />
  <path
     style="fill:#9b8ad3;stroke:none"
     d="m 1.8949027,653.39425 v 1 h 5 z"
     id="path114" />
</svg>
