<?xml version="1.0" encoding="UTF-8" standalone="no"?>
<svg
   width="237"
   height="33.713779"
   viewBox="0 0 237 33.713779"
   fill="none"
   version="1.1"
   id="svg36"
   sodipodi:docname="ignitelab.svg"
   inkscape:version="1.2 (dc2aedaf03, 2022-05-15)"
   xmlns:inkscape="http://www.inkscape.org/namespaces/inkscape"
   xmlns:sodipodi="http://sodipodi.sourceforge.net/DTD/sodipodi-0.dtd"
   xmlns="http://www.w3.org/2000/svg"
   xmlns:svg="http://www.w3.org/2000/svg">
  <defs
     id="defs40" />
  <sodipodi:namedview
     id="namedview38"
     pagecolor="#ffffff"
     bordercolor="#666666"
     borderopacity="1.0"
     inkscape:showpageshadow="2"
     inkscape:pageopacity="0.0"
     inkscape:pagecheckerboard="true"
     inkscape:deskcolor="#d1d1d1"
     showgrid="false"
     inkscape:zoom="2.5864979"
     inkscape:cx="108.64111"
     inkscape:cy="-11.598695"
     inkscape:window-width="1366"
     inkscape:window-height="705"
     inkscape:window-x="-8"
     inkscape:window-y="-8"
     inkscape:window-maximized="1"
     inkscape:current-layer="svg36" />
  <path
     d="M 0.00165599,3.1114884 C -0.0106824,2.7734184 0.0460742,2.4378184 0.166991,2.1244184 0.287907,1.8110284 0.470515,1.5297084 0.702477,1.2952784 1.24043,0.82642145 1.91658,0.57225045 2.61493,0.57225045 c 0.69835,0 1.3745,0.256639 1.91245,0.72302795 0.22949,0.23937 0.4121,0.52315 0.53549,0.83655 0.12338,0.31339 0.18754,0.64899 0.18754,0.98953 0,0.34054 -0.06416,0.67615 -0.18754,0.98954 -0.12339,0.3134 -0.306,0.59718 -0.53549,0.83655 -0.53549,0.46886 -1.20916,0.72303 -1.90752,0.72303 -0.69835,0 -1.37203,-0.25664 -1.907512,-0.72303 -0.231962,-0.2369 -0.417038,-0.52315 -0.537954,-0.83901 -0.1209168,-0.31833 -0.18014104,-0.65641 -0.17273801,-0.99695 z M 4.96169,26.258308 H 0.273101 V 7.8617784 H 4.96169 Z"
     fill="white"
     id="path2"
     style="fill:#000000" />
  <path
     d="m 8.01177,16.972608 c 0,-2.8526 0.68602,-5.1451 2.05553,-6.8823 0.6416,-0.8439896 1.4807,-1.5201296 2.4431,-1.9741896 0.9623,-0.45405 2.021,-0.6712 3.0845,-0.63172 0.9082,-0.04689 1.8163,0.11845 2.6503,0.4812 0.8341,0.36274 1.5695,0.9155 2.1519,1.60892 l 0.1998,-1.75205 H 25.135 V 25.772408 c 0.037,1.4929 -0.3529,2.9636 -1.1203,4.2468 -0.7527,1.2043 -1.8483,2.1617 -3.1463,2.7515 -1.493,0.6564 -3.1118,0.9772 -4.7429,0.9402 -1.377,0 -2.7391,-0.2789 -4.0075,-0.8119 -1.1499,-0.4368 -2.16663,-1.1647 -2.94642,-2.1099 l 2.20862,-3.0204 c 0.5576,0.6564 1.2535,1.182 2.0383,1.5423 0.7847,0.3603 1.641,0.5429 2.5047,0.538 1.1351,0.0641 2.2505,-0.3159 3.1043,-1.0587 0.3825,-0.3973 0.6786,-0.8661 0.8686,-1.3819 0.19,-0.5157 0.269,-1.0635 0.2344,-1.6114 v -0.9944 c -0.5675,0.6391 -1.2683,1.1425 -2.058,1.4781 -0.7872,0.3356 -1.641,0.4911 -2.4973,0.4565 -1.0537,0.0272 -2.1,-0.1949 -3.05,-0.6514 -0.9501,-0.4566 -1.7743,-1.1302 -2.4085,-1.9668 -1.3967,-1.752 -2.08519,-4.0889 -2.08519,-6.9416 v -0.2097 H 8.00684 Z m 4.99703,0.3554 c -0.0765,1.3917 0.2813,2.7736 1.0266,3.9557 0.3035,0.4565 0.7205,0.8316 1.2091,1.0833 0.4911,0.2517 1.0365,0.3775 1.5892,0.3602 0.6515,0.0445 1.3005,-0.0888 1.8779,-0.3899 0.5775,-0.2985 1.0611,-0.7501 1.3967,-1.3054 v -7.825 c -0.3257,-0.5527 -0.802,-1.0068 -1.3745,-1.3054 -0.5725,-0.2986 -1.2165,-0.4343 -1.8606,-0.3899 -0.5602,-0.0172 -1.1129,0.1086 -1.6089,0.3653 -0.496,0.2566 -0.9155,0.6366 -1.2191,1.103 -0.6884,0.9747 -1.0364,2.4183 -1.0364,4.3481 z"
     fill="white"
     id="path4"
     style="fill:#000000" />
  <path
     d="m 33.0978,7.8325184 0.1579,2.1961896 c 0.6318,-0.8241596 1.4436,-1.4854996 2.3715,-1.9272196 0.9278,-0.44171 1.947,-0.6564 2.9711,-0.61938 1.9692,0 3.4374,0.59717 4.39,1.78906 0.9525,1.1943396 1.4559,2.9365396 1.4855,5.2931396 v 12.2496 h -4.9625 v -12.1311 c 0.074,-0.8415 -0.1727,-1.6805 -0.6835,-2.3443 -0.3134,-0.269 -0.6762,-0.4713 -1.0685,-0.5972 -0.3924,-0.1258 -0.802,-0.1703 -1.2117,-0.1308 -0.6366,-0.0247 -1.2684,0.1308 -1.8211,0.4541 -0.5528,0.3208 -1.0093,0.7946 -1.3128,1.3671 v 13.3699 H 28.4512 V 7.8448584 Z"
     fill="white"
     id="path6"
     style="fill:#000000" />
  <path
     d="m 47.5118,3.1114084 c -0.0124,-0.33807 0.0518,-0.67367 0.185,-0.98707 0.1333,-0.31339 0.3332,-0.59471 0.5898,-0.83161 0.5947,-0.46638795 1.3449,-0.72302595 2.1173,-0.72302595 0.7724,0 1.5201,0.256638 2.1172,0.72302595 0.5084,0.48614 0.7922,1.14254 0.7922,1.82609 0,0.68354 -0.2838,1.33995 -0.7922,1.82608 -0.5922,0.46639 -1.3399,0.72303 -2.1098,0.72303 -0.7699,0 -1.5177,-0.25664 -2.1099,-0.72303 -0.2566,-0.2369 -0.459,-0.52315 -0.5947,-0.83901 -0.1357,-0.31587 -0.1999,-0.65394 -0.19,-0.99448 z M 52.9949,26.260708 H 47.8153 V 7.8616984 h 5.1796 V 26.258208 Z"
     fill="white"
     id="path8"
     style="fill:#000000" />
  <path
     d="m 62.4537,3.3336484 v 4.61209 h 3.1068 v 3.6768696 h -3.1068 v 9.3821 c -0.0494,0.5305 0.0913,1.0636 0.3948,1.4954 0.2024,0.1777 0.4368,0.3085 0.691,0.3874 0.2541,0.0765 0.5206,0.0987 0.7822,0.0617 0.4763,0.0025 0.9501,-0.0345 1.4214,-0.1135 v 3.8027 c -0.9525,0.3011 -1.9445,0.4516 -2.939,0.4491 -3.398,0 -5.1278,-1.7742 -5.1895,-5.3203 v -10.1224 H 54.9717 V 7.9679484 h 2.6429 v -4.61209 h 4.8416 v -0.02468 z"
     fill="white"
     id="path10"
     style="fill:#000000" />
  <path
     d="m 76.4871,27.080308 c -1.2387,0.0469 -2.4751,-0.153 -3.6373,-0.5898 -1.1598,-0.4368 -2.2209,-1.103 -3.1216,-1.9593 -1.7398,-1.7003 -2.6059,-3.9582 -2.6059,-6.7985 v -0.4935 c -0.0346,-1.757 0.343,-3.4967 1.0981,-5.081 0.6786,-1.4337 1.7595,-2.6379196 3.1118,-3.4645896 1.3868,-0.8242 2.976,-1.24371 4.5898,-1.21903 2.5763,0 4.6195,0.81433 6.0977,2.44793 1.4781,1.6335896 2.2258,3.9408896 2.2258,6.9292896 v 2.0555 H 72.2353 c 0.1111,1.1376 0.6342,2.1938 1.4732,2.9711 0.8588,0.7527 1.9717,1.15 3.1118,1.1105 0.8711,0.0395 1.7422,-0.1333 2.5318,-0.501 0.7921,-0.3676 1.4831,-0.9229 2.0161,-1.6138 l 2.4751,2.7811 c -0.7798,1.0956 -1.8409,1.9618 -3.0698,2.5071 -1.3424,0.6243 -2.8058,0.9377 -4.2864,0.9155 z m -0.5947,-15.5143 c -0.454,-0.0173 -0.9056,0.0641 -1.3251,0.2394 -0.4195,0.1752 -0.7946,0.4367 -1.1031,0.7723 -0.6761,0.8316 -1.0882,1.8459 -1.1869,2.9119 h 7.0057 v -0.4047 c 0.0395,-0.9525 -0.2838,-1.8878 -0.9081,-2.6083 -0.3233,-0.3134 -0.7082,-0.5553 -1.1302,-0.7107 -0.422,-0.1555 -0.8711,-0.2246 -1.3202,-0.1974 h -0.0296 z"
     fill="white"
     id="path12"
     style="fill:#000000" />
  <path
     d="M 97.7711,26.258608 H 92.8135 V 0 h 4.9576 z"
     fill="white"
     id="path14"
     style="fill:#000000" />
  <path
     d="m 112.209,26.258608 c -0.227,-0.4442 -0.392,-0.997 -0.496,-1.6583 -1.196,1.3325 -2.751,2.0013 -4.666,2.0013 -1.811,0 -3.314,-0.5232 -4.504,-1.5719 -1.191,-1.0488 -1.786,-2.3715 -1.786,-3.9656 0,-1.9593 0.725,-3.4646 2.179,-4.5134 1.453,-1.0487 3.553,-1.5793 6.3,-1.5892 h 2.273 v -1.0611 c 0,-0.8538 -0.22,-1.5398 -0.659,-2.0506 -0.44,-0.5133 -1.131,-0.7699 -2.078,-0.7699 -0.832,0 -1.486,0.1999 -1.957,0.5996 -0.474,0.3998 -0.708,0.9452 -0.708,1.641 h -4.941 c 0,-1.0709 0.331,-2.0629 0.992,-2.9735 0.662,-0.9105896 1.597,-1.6262096 2.804,-2.1444296 1.206,-0.51821 2.564,-0.77732 4.069,-0.77732 2.28,0 4.089,0.57251 5.429,1.71751 1.34,1.1450396 2.009,2.7564396 2.009,4.8292396 v 8.0175 c 0.012,1.7545 0.256,3.0821 0.735,3.9828 v 0.2912 h -4.992 z m -4.086,-3.435 c 0.728,0 1.402,-0.1629 2.016,-0.4862 0.614,-0.3257 1.071,-0.76 1.367,-1.3078 v -3.1809 h -1.846 c -2.472,0 -3.79,0.8538 -3.948,2.5639 l -0.017,0.2912 c 0,0.6145 0.217,1.1228 0.649,1.5226 0.434,0.3998 1.026,0.5996 1.779,0.5996 z"
     fill="white"
     id="path16"
     style="fill:#000000" />
  <path
     d="m 136.58,17.182508 c 0,2.9637 -0.631,5.2735 -1.897,6.9317 -1.266,1.6583 -3.033,2.4875 -5.301,2.4875 -2.006,0 -3.608,-0.77 -4.804,-2.3073 l -0.223,1.9667 h -4.444 V 9.15523e-5 h 4.94 V 9.4192184 c 1.14,-1.33254 2.638,-2.00128 4.497,-2.00128 2.255,0 4.024,0.82914 5.308,2.48742 1.283,1.6582496 1.922,3.9927496 1.922,7.0008496 v 0.2739 z m -4.94,-0.3578 c 0,-1.868 -0.296,-3.2326 -0.888,-4.0939 -0.593,-0.8612 -1.476,-1.2906 -2.651,-1.2906 -1.572,0 -2.655,0.6441 -3.247,1.9322 v 7.2994 c 0.604,1.298 1.698,1.9495 3.282,1.9495 1.584,0 2.643,-0.7872 3.146,-2.3591 0.24,-0.7526 0.358,-1.8976 0.358,-3.4375 z"
     fill="white"
     id="path18"
     style="fill:#000000" />
  <path
     d="m 164.51,17.500908 h -2.283 v 4.5307 h -2.048 v -11.7807 h 4.143 c 1.36,0 2.408,0.306 3.149,0.9155 0.74,0.6095 1.108,1.4929 1.108,2.6478 0,0.7872 -0.19,1.4485 -0.57,1.9791 -0.38,0.533 -0.911,0.9402 -1.59,1.2264 l 2.646,4.9058 v 0.1061 h -2.194 l -2.364,-4.5307 z m -2.283,-1.6509 h 2.105 c 0.691,0 1.229,-0.1752 1.619,-0.5231 0.39,-0.348 0.582,-0.8242 0.582,-1.4288 0,-0.6046 -0.18,-1.1203 -0.538,-1.4658 -0.358,-0.3455 -0.893,-0.5232 -1.606,-0.533 h -2.162 v 3.9483 z"
     fill="#C4C4CC"
     id="path20"
     style="fill:#666666" />
  <path
     d="m 179.066,16.772908 h -4.839 v 3.6251 h 5.656 v 1.6336 h -7.704 v -11.7807 h 7.648 v 1.6508 h -5.6 v 3.2524 h 4.839 z"
     fill="#C4C4CC"
     id="path22"
     style="fill:#666666" />
  <path
     d="m 189.804,19.290008 h -4.566 l -0.955,2.744 h -2.127 l 4.452,-11.7831 h 1.836 l 4.459,11.7831 h -2.137 z m -3.991,-1.6509 h 3.416 l -1.708,-4.8885 z"
     fill="#C4C4CC"
     id="path24"
     style="fill:#666666" />
  <path
     d="m 204.715,18.196608 c -0.118,1.2561 -0.582,2.2382 -1.391,2.9415 -0.81,0.7033 -1.886,1.0562 -3.228,1.0562 -0.938,0 -1.764,-0.2221 -2.48,-0.6688 -0.716,-0.4442 -1.266,-1.0784 -1.656,-1.8976 -0.387,-0.8193 -0.59,-1.7718 -0.607,-2.8576 v -1.1006 c 0,-1.1104 0.197,-2.0901 0.59,-2.9365 0.392,-0.8464 0.96,-1.5004 1.695,-1.9594 0.735,-0.459 1.587,-0.6885 2.554,-0.6885 1.301,0 2.347,0.3529 3.139,1.0562 0.792,0.7033 1.254,1.7002 1.384,2.9908 h -2.038 c -0.096,-0.8464 -0.343,-1.4584 -0.74,-1.8334 -0.398,-0.3751 -0.977,-0.5627 -1.745,-0.5627 -0.891,0 -1.574,0.3258 -2.05,0.9772 -0.479,0.6515 -0.721,1.604 -0.733,2.8625 v 1.0439 c 0,1.2733 0.227,2.2456 0.683,2.9168 0.457,0.6687 1.123,1.0043 2.004,1.0043 0.804,0 1.409,-0.1801 1.814,-0.5429 0.404,-0.3627 0.661,-0.9624 0.77,-1.8039 h 2.038 z"
     fill="#C4C4CC"
     id="path26"
     style="fill:#666666" />
  <path
     d="m 216.481,11.901708 h -3.674 v 10.1323 h -2.031 v -10.1323 h -3.642 v -1.6508 h 9.347 z"
     fill="#C4C4CC"
     id="path28"
     style="fill:#666666" />
  <path
     d="m 222.759,10.250908 h 2.038 v 8.2617 c 0,1.1278 -0.353,2.0235 -1.056,2.6874 -0.703,0.6638 -1.633,0.9944 -2.788,0.9944 -1.229,0 -2.179,-0.3109 -2.848,-0.9303 -0.669,-0.6194 -1.004,-1.4831 -1.004,-2.5886 h 2.038 c 0,0.6268 0.155,1.0957 0.466,1.4115 0.311,0.3159 0.76,0.4738 1.348,0.4738 0.55,0 0.989,-0.1826 1.315,-0.5453 0.326,-0.3652 0.489,-0.8662 0.489,-1.5103 v -8.2543 z"
     fill="#C4C4CC"
     id="path30"
     style="fill:#666666" />
  <path
     d="m 234.952,18.998708 c 0,-0.5182 -0.182,-0.918 -0.545,-1.1968 -0.363,-0.2789 -1.022,-0.5627 -1.972,-0.8489 -0.95,-0.2863 -1.705,-0.6046 -2.265,-0.955 -1.073,-0.6737 -1.611,-1.5547 -1.611,-2.638 0,-0.95 0.387,-1.7323 1.162,-2.3467 0.775,-0.6145 1.779,-0.9229 3.015,-0.9229 0.82,0 1.55,0.1505 2.194,0.454 0.642,0.3011 1.148,0.7329 1.513,1.2906 0.367,0.5577 0.55,1.1771 0.55,1.8582 h -2.038 c 0,-0.6145 -0.193,-1.0957 -0.578,-1.4436 -0.385,-0.348 -0.937,-0.5232 -1.655,-0.5232 -0.669,0 -1.19,0.1432 -1.558,0.4294 -0.37,0.2863 -0.555,0.686 -0.555,1.1968 0,0.4319 0.2,0.7922 0.6,1.0809 0.4,0.2887 1.056,0.57 1.974,0.8414 0.918,0.2715 1.653,0.5824 2.209,0.9304 0.555,0.3479 0.962,0.7477 1.221,1.1968 0.259,0.4516 0.387,0.9772 0.387,1.5818 0,0.9821 -0.375,1.7619 -1.127,2.3418 -0.753,0.5799 -1.775,0.8711 -3.063,0.8711 -0.853,0 -1.636,-0.1579 -2.351,-0.4738 -0.716,-0.3159 -1.271,-0.7502 -1.668,-1.3079 -0.398,-0.5552 -0.595,-1.2042 -0.595,-1.942 h 2.048 c 0,0.6687 0.222,1.1869 0.664,1.5546 0.441,0.3677 1.076,0.5503 1.902,0.5503 0.714,0 1.247,-0.1431 1.607,-0.4319 0.358,-0.2887 0.538,-0.6712 0.538,-1.145 z"
     fill="#C4C4CC"
     id="path32"
     style="fill:#666666" />
  <path
     d="m 150.271,33.145708 h -4.958 V 0.56990045 h 4.958 z"
     fill="#00b37e"
     id="path34" />
</svg>
